<?xml version="1.0" encoding="UTF-8" standalone="no"?>
<!DOCTYPE svg PUBLIC "-//W3C//DTD SVG 1.1//EN" "http://www.w3.org/Graphics/SVG/1.1/DTD/svg11.dtd">
<svg width="100%" height="100%" viewBox="0 0 800 800" version="1.1" xmlns="http://www.w3.org/2000/svg" xmlns:xlink="http://www.w3.org/1999/xlink" xml:space="preserve" xmlns:serif="http://www.serif.com/" style="fill-rule:evenodd;clip-rule:evenodd;stroke-linejoin:round;stroke-miterlimit:2;">
    <circle cx="400" cy="400" r="400" style="fill:rgb(55,37,35);"/>
    <path d="M538.617,272.656C512.683,260.753 485.314,252.266 457.195,247.406C456.672,247.306 456.14,247.557 455.883,248.023C452.149,254.791 448.76,261.742 445.727,268.852C415.419,264.249 384.589,264.249 354.281,268.852C351.235,261.725 347.797,254.772 343.984,248.023C343.717,247.567 343.194,247.321 342.672,247.406C314.562,252.258 287.202,260.746 261.281,272.656C261.058,272.75 260.87,272.911 260.742,273.117C208.891,350.594 194.688,426.164 201.656,500.781C201.696,501.152 201.885,501.49 202.18,501.719C232.373,524.085 266.149,541.159 302.063,552.211C302.58,552.366 303.143,552.181 303.469,551.75C311.18,541.252 318.013,530.136 323.898,518.516C323.987,518.339 324.034,518.144 324.034,517.946C324.034,517.416 323.701,516.94 323.203,516.758C312.426,512.642 301.993,507.678 292,501.914C291.609,501.684 291.368,501.263 291.368,500.81C291.368,500.409 291.556,500.031 291.875,499.789C293.969,498.227 296.07,496.586 298.07,494.93C298.432,494.633 298.933,494.566 299.359,494.758C364.82,524.648 435.695,524.648 500.383,494.758C500.813,494.552 501.326,494.613 501.695,494.914C503.695,496.563 505.797,498.219 507.945,499.789C508.268,500.031 508.459,500.411 508.459,500.815C508.459,501.265 508.222,501.683 507.836,501.914C497.856,507.734 487.402,512.699 476.586,516.758C476.091,516.944 475.762,517.421 475.762,517.949C475.762,518.155 475.811,518.357 475.906,518.539C481.89,530.096 488.713,541.199 496.32,551.758C496.636,552.203 497.205,552.396 497.727,552.234C533.689,541.215 567.509,524.139 597.727,501.742C598.026,501.525 598.217,501.189 598.25,500.82C606.594,414.539 584.281,339.586 539.109,273.148C539.008,272.932 538.834,272.757 538.617,272.656ZM333.664,455.352C313.953,455.352 297.727,437.258 297.727,415.039C297.727,392.82 313.648,374.727 333.664,374.727C353.844,374.727 369.93,392.977 369.602,415.039C369.617,437.258 353.688,455.352 333.664,455.352ZM466.578,455.352C446.867,455.352 430.641,437.258 430.641,415.039C430.641,392.82 446.563,374.727 466.578,374.727C486.758,374.727 502.844,392.977 502.516,415.039C502.523,437.258 486.758,455.352 466.578,455.352Z" style="fill:rgb(214,173,153);fill-rule:nonzero;"/>
</svg>
