<?xml version="1.0" encoding="UTF-8" standalone="no"?>
<!-- Created with Inkscape (http://www.inkscape.org/) -->

<svg
   width="210mm"
   height="297mm"
   viewBox="0 0 210 297"
   version="1.1"
   id="svg1"
   xmlns="http://www.w3.org/2000/svg"
   xmlns:svg="http://www.w3.org/2000/svg">
  <defs
     id="defs1" />
  <g
     id="layer1">
    <path
       d="m 81.493517,157.94933 -25.073405,88.9894 55.087588,39.8508 30.86428,-64.07361 -17.97151,-22.66011 -3.60909,-22.61516 -24.130313,-2.36988 z m 15.41663,20.21065 7.913213,0.45992 -3.05614,5.83169 -8.131813,-0.72967 z m -1.06815,6.9262 3.58428,0.2744 4.083993,20.86591 -9.639213,24.5122 -6.00894,-25.91935 z"
       style="display:inline;fill:#d5ad99;fill-opacity:1;stroke-width:0.556182"
       id="path28" />
    <path
       id="path27"
       style="display:inline;fill:#d5ad99;fill-opacity:1;stroke-width:0.556182"
       d="M 46.643447,9.7950716 32.288251,20.732389 25.451976,37.822302 19.52779,30.986544 12.919924,11.84611 12.692031,32.581278 24.768813,58.785364 16.10991,60.152722 7.6789012,49.443298 l 2.9620928,15.949931 20.279899,6.380489 11.620996,11.620996 42.609798,18.684646 7.71116,7.71064 -3.53157,0.61133 -1.23455,1.93942 L 76.070587,101.0081 58.665969,92.720243 H 40.985395 l 6.630086,19.890767 18.785933,11.32696 16.097213,-2.79931 -2.83652,4.45709 -1.65778,24.86308 20.16724,22.10098 33.979833,3.31504 4.69688,7.73545 h 12.70775 l 11.32695,-16.85169 -18.23351,-22.10097 7.18303,-12.4318 -6.63939,-9.46454 16.86099,4.21525 16.29927,-14.64149 6.90655,-19.614817 -23.48229,0.82889 -14.91795,8.011397 -8.26203,12.07626 -2.53886,-0.80822 5.06377,-9.83609 44.59987,-24.162345 18.44332,-8.317322 3.49591,-19.034497 -8.26668,13.153202 -12.76563,-1.225765 9.29762,-26.981298 -3.92586,-25.297681 -3.78788,21.44727 -7.44657,12.806453 -8.97982,-15.430066 -14.87661,-12.443685 10.25416,18.912541 4.10104,20.507792 -18.91254,-7.747331 -9.34207,-7.74733 6.83576,12.987837 20.50779,16.634127 -7.74733,10.253638 -28.02723,12.532568 -3.41788,-6.835758 0.45579,-16.86202 -5.46892,17.545182 3.1905,15.266768 -4.88032,6.68796 -16.78864,-1.54616 -4.3403,-9.435594 0.68368,-12.987838 -5.241033,-15.722554 -0.45527,12.760461 -2.05104,11.16521 -9.34206,-0.911572 L 70.112816,82.483142 66.92283,70.40636 65.328095,56.50695 61.226536,68.355839 62.593895,80.204211 49.833433,76.102653 39.351903,64.25428 55.75762,49.671191 65.783881,33.720744 52.111847,44.885954 35.934023,50.582247 37.528758,29.847078 Z m 128.742013,85.5549854 -13.78599,3.478146 -12.90224,7.135047 -7.88796,8.33552 6.2513,-9.9627 13.28343,-7.423318 z m -127.769979,1.514119 11.603426,0.82889 12.707752,6.630084 7.735448,9.94564 -8.848275,-8.28039 -12.243109,-6.263522 z m 100.993319,68.070254 9.58753,1.44953 -6.03844,3.92106 -1.3164,-0.81513 z m 1.66003,5.7448 1.19048,0.77322 -3.61337,5.62966 2.48755,3.52906 -1.25927,0.88306 -2.44157,-3.50069 -5.28856,1.56935 -0.86888,-1.37558 5.37578,-1.20873 0.8972,-0.72025 z" />
  </g>
</svg>
